<svg width="200" height="136" viewBox="0 0 200 136" fill="none" xmlns="http://www.w3.org/2000/svg">
<g id="bigfish">
<path id="Vector" d="M146.673 52.6366H133.602C132.749 52.6366 132.06 53.2931 132.06 54.1042V60.2344C127.839 60.2344 123.978 57.0891 124.444 51.8634C124.793 47.9625 128.094 45.2344 132.164 45.2344C134.625 45.2344 136.669 46.0747 138.505 47.4985C139.14 47.9887 140.08 47.8574 140.558 47.2243L146.378 39.5069C146.847 38.8884 146.743 38.0247 146.133 37.5345C142.799 34.8619 137.236 32.1805 130.656 32.1805C119.721 32.1805 111.124 38.1356 108.503 46.6174L105.92 39.2618C104.565 35.4046 100.774 32.8049 96.5015 32.8049H88.944C90.3354 36.0523 90.3198 37.7534 91.1292 43.3233C91.8555 48.3009 94.5063 52.6162 94.5063 52.6162C94.5063 52.6162 91.8555 56.9315 91.1292 61.9091C90.3198 67.4761 90.3354 69.1801 88.944 72.4275H96.5015C100.774 72.4275 104.565 69.8278 105.92 65.9706L108.552 58.4721C111.326 67.8554 120.358 73.0548 130.938 73.0548C137.543 73.0548 142.845 71.1612 146.731 68.5849C147.669 67.9634 148.214 66.9334 148.214 65.8454V54.1042C148.214 53.2931 147.525 52.6366 146.673 52.6366ZM70.4385 61.6877H67.53V55.922H70.4385C72.7552 55.922 73.9413 57.1095 73.9413 58.8047C73.9413 60.4999 72.7552 61.6877 70.4385 61.6877ZM67.53 43.3641H69.9632C72.2189 43.3641 73.2888 44.3824 73.2888 46.136C73.2888 47.8866 72.1607 48.9049 69.9632 48.9049H67.53V43.3641ZM83.8683 51.7963C87.3132 49.9903 88.7383 47.1047 88.7383 43.7726C88.7383 36.3091 81.9681 32.8049 71.9955 32.8049H53.3304C52.4784 32.8049 51.7857 33.4643 51.7857 34.2755V70.957C51.7857 71.771 52.4784 72.4275 53.3304 72.4275H73.0004C83.0963 72.4275 89.6856 68.5294 89.6856 60.7858C89.6856 56.9403 87.2519 53.4944 83.8683 51.7963ZM113.444 87.0277C110.367 85.315 106.097 84.6731 104.728 84.3172C103.741 84.0575 103.042 83.6461 103.164 83.0655C103.272 82.561 103.863 82.2692 104.936 82.2692C106.984 82.2692 108.988 83.1355 110.217 83.7861C110.854 84.1217 111.654 83.9437 112.074 83.3806L115.13 79.2958C115.648 78.6043 115.448 77.6327 114.685 77.1921C111.811 75.5319 108.249 74.1548 103.71 74.1548C96.7896 74.1548 90.6633 77.5189 90.6633 83.754C90.6633 85.741 91.6594 87.9818 93.9856 89.7208C96.8264 91.8478 100.088 92.3467 102.463 92.9361C103.98 93.3125 104.271 93.8555 104.216 94.2957C104.167 94.7217 103.636 95.1886 102.564 95.1886C100.526 95.1886 97.7921 94.0448 95.7322 92.8369C95.0917 92.4605 94.2519 92.6297 93.8167 93.2133L90.4699 97.7007C89.9799 98.3572 90.142 99.2617 90.8227 99.7402C94.8404 102.573 99.0239 103.819 104.262 103.819C111.841 103.819 117.542 99.7198 117.542 93.931C117.542 91.0191 116.432 88.6908 113.444 87.0277ZM87.6105 74.6041L78.8944 74.6076C78.0421 74.6108 77.3497 75.2673 77.3497 76.0781V101.9C77.3497 102.711 78.0421 103.37 78.8944 103.37H87.6135C88.4655 103.37 89.1585 102.711 89.1585 101.9V76.0746C89.1585 75.2635 88.4655 74.6041 87.6105 74.6041ZM74.4749 74.6041H53.3304C52.4784 74.6041 51.7857 75.2635 51.7857 76.0746V101.899C51.7857 102.71 52.4784 103.37 53.3304 103.37H62.0593C62.9141 103.37 63.6037 102.71 63.6037 101.899V94.1644H71.8266C72.6786 94.1644 73.3713 93.505 73.3713 92.6939V87.5121C73.3713 86.7009 72.6786 86.0415 71.8266 86.0415H63.6037V83.6957H74.4749C75.3266 83.6957 76.0193 83.0392 76.0193 82.2252V76.0746C76.0193 75.2635 75.3266 74.6041 74.4749 74.6041ZM146.67 74.6041H137.466C136.614 74.6041 135.922 75.2635 135.922 76.0746V83.8941H130.843V76.0746C130.843 75.2635 130.154 74.6041 129.299 74.6041H120.095C119.243 74.6041 118.55 75.2635 118.55 76.0746V101.899C118.55 102.71 119.243 103.37 120.095 103.37H129.299C130.154 103.37 130.843 102.71 130.843 101.899V94.0798H135.922V101.899C135.922 102.71 136.614 103.37 137.466 103.37H146.67C147.525 103.37 148.214 102.71 148.214 101.899V76.0746C148.214 75.2635 147.525 74.6041 146.67 74.6041Z" fill="#00548E"/>
</g>
</svg>
