<svg width="30" height="30" viewBox="0 0 30 30" fill="none" xmlns="http://www.w3.org/2000/svg">
<g id="link">
<path id="Vector" d="M12.5 16.25C13.0368 16.9677 13.7217 17.5615 14.5082 17.9912C15.2947 18.4209 16.1644 18.6764 17.0583 18.7404C17.9522 18.8044 18.8495 18.6755 19.6892 18.3622C20.5289 18.049 21.2914 17.5588 21.925 16.925L25.675 13.175C26.8135 11.9962 27.4435 10.4175 27.4292 8.77874C27.415 7.14001 26.7577 5.57244 25.5989 4.41364C24.4401 3.25484 22.8725 2.59753 21.2338 2.58329C19.595 2.56905 18.0163 3.19901 16.8375 4.3375L14.6875 6.475" stroke="#535354" stroke-width="2.5" stroke-linecap="round" stroke-linejoin="round"/>
<path id="Vector_2" d="M17.5 13.75C16.9632 13.0323 16.2783 12.4385 15.4918 12.0088C14.7053 11.5791 13.8356 11.3236 12.9417 11.2596C12.0478 11.1956 11.1505 11.3245 10.3108 11.6378C9.47112 11.951 8.70861 12.4412 8.075 13.075L4.325 16.825C3.18651 18.0038 2.55655 19.5825 2.57079 21.2213C2.58503 22.86 3.24233 24.4276 4.40113 25.5864C5.55993 26.7452 7.12751 27.4025 8.76624 27.4167C10.405 27.431 11.9837 26.801 13.1625 25.6625L15.3 23.525" stroke="#535354" stroke-width="2.5" stroke-linecap="round" stroke-linejoin="round"/>
</g>
</svg>
