<svg width="28" height="28" viewBox="0 0 28 28" fill="none" xmlns="http://www.w3.org/2000/svg">
<path d="M11.6667 15.1667C12.1677 15.8365 12.8069 16.3907 13.541 16.7918C14.275 17.1928 15.0868 17.4313 15.9211 17.4911C16.7554 17.5508 17.5929 17.4304 18.3766 17.1381C19.1603 16.8457 19.872 16.3882 20.4633 15.7967L23.9633 12.2967C25.0259 11.1965 25.6139 9.72301 25.6006 8.19353C25.5873 6.66405 24.9738 5.20098 23.8923 4.11943C22.8107 3.03789 21.3477 2.4244 19.8182 2.41111C18.2887 2.39782 16.8152 2.98579 15.715 4.04837L13.7083 6.04337" stroke="black" stroke-width="2" stroke-linecap="round" stroke-linejoin="round"/>
<path d="M16.3333 12.8334C15.8323 12.1636 15.1931 11.6094 14.459 11.2083C13.725 10.8073 12.9132 10.5688 12.0789 10.509C11.2446 10.4493 10.4071 10.5697 9.62342 10.862C8.8397 11.1544 8.12802 11.6119 7.53665 12.2034L4.03665 15.7034C2.97406 16.8036 2.3861 18.2771 2.39939 19.8066C2.41268 21.3361 3.02616 22.7992 4.10771 23.8807C5.18926 24.9623 6.65233 25.5757 8.18181 25.589C9.71129 25.6023 11.1848 25.0144 12.285 23.9518L14.28 21.9568" stroke="black" stroke-width="2" stroke-linecap="round" stroke-linejoin="round"/>
</svg>
