<svg width="28" height="28" viewBox="0 0 28 28" fill="none" xmlns="http://www.w3.org/2000/svg">
<g id="link1">
<path id="Vector" d="M11.6667 15.1667C12.1677 15.8365 12.8069 16.3907 13.541 16.7918C14.275 17.1928 15.0868 17.4313 15.9211 17.4911C16.7554 17.5508 17.5929 17.4304 18.3766 17.1381C19.1603 16.8457 19.872 16.3882 20.4633 15.7967L23.9633 12.2967C25.0259 11.1965 25.6139 9.72297 25.6006 8.19349C25.5873 6.66401 24.9738 5.20094 23.8923 4.11939C22.8107 3.03785 21.3477 2.42436 19.8182 2.41107C18.2887 2.39778 16.8152 2.98575 15.715 4.04833L13.7083 6.04333" stroke="white" stroke-width="2" stroke-linecap="round" stroke-linejoin="round"/>
<path id="Vector_2" d="M16.3333 12.8333C15.8323 12.1635 15.1931 11.6093 14.459 11.2082C13.725 10.8072 12.9132 10.5687 12.0789 10.5089C11.2446 10.4492 10.4071 10.5696 9.62343 10.8619C8.83971 11.1543 8.12803 11.6118 7.53666 12.2033L4.03666 15.7033C2.97407 16.8035 2.38611 18.277 2.3994 19.8065C2.41269 21.336 3.02617 22.7991 4.10772 23.8806C5.18927 24.9622 6.65234 25.5756 8.18182 25.5889C9.7113 25.6022 11.1848 25.0143 12.285 23.9517L14.28 21.9567" stroke="white" stroke-width="2" stroke-linecap="round" stroke-linejoin="round"/>
</g>
</svg>
