<svg width="75" height="75" viewBox="0 0 75 75" fill="none" xmlns="http://www.w3.org/2000/svg">
<g id="logo">
<circle id="Ellipse 1" cx="37.5" cy="37.5" r="37.5" fill="#7F52FF"/>
<path id="Vector" d="M34.3749 39.0625C35.0459 39.9596 35.902 40.7019 36.8851 41.239C37.8682 41.7761 38.9554 42.0955 40.0728 42.1755C41.1902 42.2556 42.3117 42.0943 43.3614 41.7028C44.411 41.3112 45.3641 40.6986 46.1561 39.9063L50.8436 35.2188C52.2667 33.7453 53.0542 31.7718 53.0364 29.7234C53.0186 27.675 52.197 25.7156 50.7485 24.267C49.3 22.8185 47.3405 21.9969 45.2921 21.9791C43.2437 21.9613 41.2702 22.7488 39.7968 24.1719L37.1093 26.8438" stroke="white" stroke-width="3" stroke-linecap="round" stroke-linejoin="round"/>
<path id="Vector_2" d="M40.6249 35.9375C39.9539 35.0404 39.0978 34.2981 38.1146 33.761C37.1315 33.2239 36.0444 32.9045 34.927 32.8245C33.8096 32.7444 32.688 32.9057 31.6384 33.2972C30.5888 33.6887 29.6356 34.3014 28.8436 35.0937L24.1561 39.7812C22.733 41.2547 21.9456 43.2281 21.9634 45.2766C21.9812 47.325 22.8028 49.2844 24.2513 50.7329C25.6998 52.1814 27.6593 53.0031 29.7077 53.0209C31.7561 53.0387 33.7296 52.2512 35.203 50.8281L37.8749 48.1562" stroke="white" stroke-width="3" stroke-linecap="round" stroke-linejoin="round"/>
</g>
</svg>
