<svg width="210" height="131" viewBox="0 0 210 131" fill="none" xmlns="http://www.w3.org/2000/svg">
<g id="mar">
<g id="Group">
<path id="Vector" d="M158.832 86.9115H134.363V90.969H158.832V86.9115Z" fill="#FF884E"/>
<path id="Vector_2" d="M181.288 63.1548L173.204 74.6769L165.119 63.1548H159.544L170.757 78.9822V90.9999H175.619V78.9822H175.65L186.832 63.1548H181.288Z" fill="black"/>
<path id="Vector_3" d="M34.6903 76.5353L34.3186 76.2566L34.6593 75.9159C35.9602 74.584 36.7345 72.7875 36.7345 70.8981C36.7345 66.6238 32.8009 63.1548 27.969 63.1548H14.8673V90.9999H28.6814C33.792 90.9999 37.9734 87.3141 37.9734 82.792C37.9734 80.376 36.7655 78.115 34.6903 76.5353ZM19.7301 67.2123H27.9381C30.2301 67.2123 32.0575 68.8539 32.0575 70.8981C32.0575 72.9424 30.1991 74.584 27.9381 74.584H19.7301V67.2123ZM28.6814 86.9114H19.7301V78.6415H28.6814C31.2522 78.6415 33.3274 80.4999 33.3274 82.792C33.3274 85.084 31.2522 86.9114 28.6814 86.9114Z" fill="black"/>
<path id="Vector_4" d="M119.217 81.7079L111.164 63.1548H105.805L118.071 90.9999H120.332L132.628 63.1548H127.27L119.217 81.7079Z" fill="black"/>
<path id="Vector_5" d="M57.3628 62.5973C49.3717 62.5973 42.8982 69.1017 42.8982 77.0929C42.8982 85.084 49.4027 91.5575 57.3938 91.5575C65.385 91.5575 71.8584 85.053 71.8584 77.0619C71.8584 69.0707 65.385 62.5973 57.3628 62.5973ZM57.3628 86.7876C52.0044 86.7876 47.6372 82.4513 47.6372 77.0929C47.6372 71.7345 51.9735 67.3672 57.3628 67.3672C62.7212 67.3672 67.0885 71.7035 67.0885 77.0929C67.0575 82.4203 62.7212 86.7566 57.3628 86.7876Z" fill="black"/>
<path id="Vector_6" d="M95.8938 81.0884L80.0664 63.1548H77.6504V90.9999H82.5133V73.0353L98.3097 90.9999H100.726V63.1548H95.8938V81.0884Z" fill="black"/>
<path id="Vector_7" d="M146.597 62.5973C141.239 62.5973 136.872 66.9336 136.872 72.323C136.872 77.7123 141.208 82.0486 146.597 82.0486C151.987 82.0486 156.323 77.7123 156.323 72.323C156.292 66.9336 151.956 62.5973 146.597 62.5973ZM146.597 77.8982C143.5 77.8982 140.991 75.3893 140.991 72.292C140.991 69.1946 143.5 66.6858 146.597 66.6858C149.695 66.6858 152.204 69.1946 152.204 72.292C152.173 75.3893 149.695 77.8982 146.597 77.8982Z" fill="black"/>
<path id="Vector_8" d="M41.1947 44.416V53.8629H38.5929V39.9248H38.6239H38.5929H41.5044L45.8097 47.6372L50.115 39.9248H52.9956V53.8629H50.4248V44.416L46.7389 51.1682H44.8805L41.1947 44.416Z" fill="black"/>
<path id="Vector_9" d="M152.265 39.9248V42.3098H156.385V53.8629H158.987V42.3098H163.106V39.9248H152.265Z" fill="black"/>
<path id="Vector_10" d="M137.243 39.9248V42.3098H141.363V53.8629H143.965V42.3098H148.053V39.9248H137.243Z" fill="black"/>
<path id="Vector_11" d="M113.951 39.9248H111.35V53.8629H113.951V39.9248Z" fill="black"/>
<path id="Vector_12" d="M79.354 48.2257H81.4602L85.3628 53.8629H88.3363L84.4027 48.1637C86.6327 47.854 88.3363 46.1505 88.3363 44.0753C88.3363 41.7832 86.2301 39.9248 83.6593 39.9248H76.7522V53.8629H79.354V48.2257ZM79.354 42.1239H83.6593C84.8673 42.1239 85.8584 42.9912 85.8584 44.0753C85.8584 45.1593 84.8673 46.0266 83.6593 46.0266H79.354V42.1239Z" fill="black"/>
<path id="Vector_13" d="M65.0752 44.5708L67.0885 48.9381H63.031L65.0752 44.5708ZM64.4558 39.9248L58.0133 53.8629H60.8009L62.0398 51.1991H68.1416L69.3805 53.8629H72.1681L65.6947 39.9248H64.4558Z" fill="black"/>
<path id="Vector_14" d="M100.757 39.9248H93.8496V53.8629H96.4513V48.2257H98.5575L102.46 53.8629H105.434L101.5 48.1637C103.73 47.854 105.434 46.1505 105.434 44.0753C105.434 41.7832 103.327 39.9248 100.757 39.9248ZM102.956 44.0753C102.956 45.1593 101.965 46.0266 100.757 46.0266H96.4513V42.1239H100.757C101.965 42.1239 102.956 42.9912 102.956 44.0753Z" fill="black"/>
<path id="Vector_15" d="M126.403 39.646C122.407 39.646 119.155 42.8982 119.155 46.8938C119.155 50.8894 122.407 54.1416 126.403 54.1416C130.398 54.1416 133.65 50.8894 133.65 46.8938C133.65 42.8982 130.429 39.646 126.403 39.646ZM126.403 51.5398C123.832 51.5398 121.757 49.4646 121.757 46.8938C121.757 44.323 123.832 42.2478 126.403 42.2478C128.973 42.2478 131.049 44.323 131.049 46.8938C131.049 49.4646 128.973 51.5398 126.403 51.5398Z" fill="black"/>
<path id="Vector_16" d="M189.805 63.5265H188.69V63.0929H191.385V63.5265H190.27V66.5929H189.805V63.5265Z" fill="black"/>
<path id="Vector_17" d="M192.252 66.5929H191.819V63.0929H192.5L193.367 65.7876C193.398 65.8805 193.429 65.9734 193.46 66.0663C193.491 65.9734 193.522 65.8805 193.553 65.7876L194.451 63.0929H195.133V66.5929H194.668V63.6194C194.637 63.7124 194.606 63.8363 194.575 63.9292L193.677 66.5929H193.212L192.345 63.9292C192.314 63.8363 192.283 63.7124 192.252 63.6194V66.5929Z" fill="black"/>
</g>
</g>
</svg>
