<svg width="316" height="58" viewBox="0 0 316 58" fill="none" xmlns="http://www.w3.org/2000/svg">
<path d="M6.5387 45.3713C5.37674 45.3739 4.23493 45.0679 3.22992 44.4847C2.22491 43.9015 1.39272 43.062 0.818366 42.0519C0.252805 41.049 -0.0292552 39.911 0.00239943 38.76C0.0340541 37.609 0.378231 36.4883 0.998062 35.518L12.7782 17.0192C13.3811 16.025 14.2371 15.2087 15.2588 14.6536C16.2804 14.0984 17.4311 13.8244 18.5933 13.8596C19.7547 13.8874 20.8877 14.2233 21.8766 14.8328C22.8655 15.4424 23.6747 16.3037 24.2213 17.3287C25.3195 19.4052 25.1822 21.9035 23.8669 23.8527L12.0943 42.3514C11.4973 43.2817 10.6751 44.0462 9.70396 44.5742C8.73279 45.1021 7.64407 45.3762 6.5387 45.3713Z" fill="#F62B54"/>
<path d="M26.7448 45.3709C24.3688 45.3709 22.1825 44.1005 21.0345 42.059C20.4702 41.0587 20.1888 39.9238 20.2204 38.7758C20.2521 37.6278 20.5956 36.5101 21.2142 35.5425L32.9718 17.0862C33.5659 16.078 34.4188 15.2471 35.4422 14.6797C36.4656 14.1122 37.6222 13.8289 38.792 13.8591C41.1879 13.9115 43.3592 15.2518 44.4574 17.3482C45.548 19.4447 45.3883 21.9579 44.0331 23.9022L32.278 42.3585C31.6828 43.2848 30.864 44.0463 29.8969 44.5728C28.9299 45.0993 27.8459 45.3737 26.7448 45.3709Z" fill="#FFCC00"/>
<path d="M46.499 45.5256C49.8484 45.5256 52.5637 42.8673 52.5637 39.5881C52.5637 36.3089 49.8484 33.6506 46.499 33.6506C43.1495 33.6506 40.4342 36.3089 40.4342 39.5881C40.4342 42.8673 43.1495 45.5256 46.499 45.5256Z" fill="#00CA72"/>
<path d="M309.969 33.9951C311.801 33.9951 312.897 35.2978 312.897 37.4317V44.7444H315.385V37.2645C315.385 33.6356 313.675 31.5317 310.461 31.5317C309.203 31.5317 307.206 31.8761 306.016 34.1897C305.739 33.5073 305.283 32.9126 304.695 32.4687C304.108 32.0249 303.411 31.7485 302.679 31.669C302.218 31.5846 301.749 31.5569 301.281 31.5866C300.258 31.669 298.436 32.3054 297.755 33.748V31.8087H295.264V44.7444H297.755V37.7637C297.755 35.0482 299.532 33.9951 301.311 33.9951C302.978 33.9951 304.074 35.2704 304.074 37.4043V44.7444H306.55V37.7637C306.55 35.6023 307.848 33.9701 309.969 33.9951ZM286.122 42.583C287.26 42.608 288.358 42.1538 289.154 41.3302C289.953 40.5065 290.377 39.3859 290.335 38.2354C290.335 35.6298 288.418 33.995 286.122 33.995C283.823 33.995 281.909 35.6298 281.909 38.2354C281.864 39.3835 282.288 40.5015 283.082 41.3227C283.876 42.1463 284.969 42.603 286.102 42.583H286.122ZM286.122 45.009C282.483 45.009 279.446 42.321 279.446 38.2204C279.446 34.1198 282.483 31.5167 286.122 31.5167C289.761 31.5167 292.823 34.1199 292.823 38.2204C292.823 42.321 289.743 45.0214 286.104 45.0214L286.122 45.009ZM266.63 38.2204L266.605 38.2354C266.605 34.1348 269.722 31.5317 273.386 31.5167C274.306 31.4989 275.22 31.6745 276.068 32.0322C276.917 32.3899 277.68 32.9217 278.31 33.5932L276.423 35.2005C276.022 34.807 275.548 34.4968 275.026 34.2877C274.505 34.0787 273.947 33.975 273.386 33.9826C271.09 33.9826 269.093 35.6173 269.093 38.2204C269.093 39.98 270.139 41.5648 271.744 42.2386C273.348 42.9125 275.195 42.5381 276.423 41.2952L278.337 42.9025C277.706 43.5809 276.938 44.119 276.085 44.4818C275.232 44.8447 274.313 45.0243 273.386 45.009C269.749 45.009 266.63 42.321 266.63 38.2204ZM258.661 42.2611C258.658 42.0349 258.7 41.8105 258.784 41.6005C258.868 41.3906 258.993 41.1993 259.151 41.0375C259.309 40.8757 259.497 40.7467 259.705 40.6577C259.913 40.5687 260.137 40.5216 260.363 40.519C260.589 40.5216 260.812 40.5688 261.02 40.6577C261.228 40.7467 261.417 40.8757 261.575 41.0375C261.733 41.1993 261.857 41.3906 261.941 41.6005C262.026 41.8105 262.068 42.0349 262.065 42.2611C262.043 42.6991 261.854 43.1121 261.538 43.4159C261.222 43.7196 260.801 43.8913 260.363 43.8958C259.924 43.8913 259.504 43.7196 259.188 43.4159C258.871 43.1121 258.683 42.6991 258.661 42.2611Z" fill="#333333"/>
<path fill-rule="evenodd" clip-rule="evenodd" d="M265.469 15.364H256.607L250.395 31.3795L244.215 15.364H235.353L246.127 40.6713L239.426 57.4031H248.223L265.469 15.364ZM211.57 29.4403C211.57 33.4835 215.104 36.144 218.576 36.144C221.988 36.144 225.34 33.6682 225.34 29.4378C225.34 25.2075 221.988 22.7292 218.576 22.7292C215.104 22.7292 211.57 25.3922 211.57 29.4379V29.4403ZM225.34 43.5715V40.3694C223.543 43.0898 219.35 44.118 217.198 44.118C210.075 44.118 202.95 38.5025 202.95 29.4378C202.95 20.3757 210.073 14.7601 217.198 14.7601C218.993 14.7601 223.186 15.3592 225.34 18.5038V15.3741H233.601V43.5765L225.34 43.574V43.5715ZM200.599 43.5715H192.338V40.0673C190.957 42.663 187.611 44.1754 184.136 44.1754C176.951 44.1754 170.604 38.4376 170.604 29.5526C170.604 20.5004 176.951 14.7551 184.137 14.7551C187.606 14.7551 190.962 16.2027 192.338 18.8007V0H200.599L200.599 43.5715ZM192.158 29.3754C192.158 25.1475 189.106 22.6692 185.694 22.6692C182.16 22.6692 179.225 25.3272 179.225 29.3754C179.225 33.5533 182.16 36.1989 185.691 36.1989C189.168 36.2038 192.158 33.4236 192.158 29.3754ZM150.179 28.6466C150.179 24.3589 152.395 22.9088 155.328 22.9088C158.14 22.9088 160.177 24.7806 160.177 28.5243V43.5664H168.498V26.7149C168.498 18.6835 164.545 14.7551 158.258 14.7551C154.966 14.7551 151.674 16.6269 150.176 19.4671V15.364H141.86V43.5665H150.179V28.6466ZM124.964 44.0506C117.062 44.0506 110.471 38.2529 110.471 29.3729C110.471 20.4879 117.055 14.7476 124.964 14.7476C132.873 14.7476 139.514 20.4879 139.514 29.3729C139.514 38.2579 132.866 44.0531 124.964 44.0531V44.0506ZM124.964 35.8395C128.433 35.8395 131.311 33.2988 131.311 29.3754C131.311 25.5693 128.436 22.9712 124.964 22.9712C124.128 22.9581 123.298 23.1154 122.525 23.4333C121.752 23.7513 121.052 24.2233 120.467 24.8206C119.878 25.4211 119.417 26.1338 119.109 26.9163C118.802 27.6987 118.655 28.535 118.677 29.3754C118.68 33.3038 121.552 35.8395 124.964 35.8395ZM95.5537 22.9112C98.007 22.9112 100.163 24.8455 100.163 28.5268V43.5714H108.425V27.5535C108.425 19.0378 104.284 14.7501 97.6477 14.7501C95.676 14.7501 91.9623 15.3491 89.2668 19.7616C87.7095 16.4997 84.717 14.8075 80.2945 14.8075C78.7591 14.7997 77.2538 15.2342 75.9588 16.0592C74.6638 16.8842 73.6337 18.0647 72.9918 19.4596V15.3665H64.6658V43.5689H72.9843V28.6466C72.9843 24.3589 75.3203 22.9088 77.8336 22.9088C80.2296 22.9088 82.3809 24.7806 82.4434 28.3446V43.5689H90.7642V28.6466C90.7642 24.546 92.9206 22.9137 95.5537 22.9137V22.9112Z" fill="#333333"/>
</svg>
