<svg width="410" height="196" viewBox="0 0 410 196" fill="none" xmlns="http://www.w3.org/2000/svg">
<path d="M53.8461 153.336C52.6842 153.339 51.5424 153.033 50.5373 152.45C49.5323 151.867 48.7001 151.027 48.1258 150.017C47.5602 149.014 47.2782 147.876 47.3098 146.725C47.3415 145.574 47.6856 144.453 48.3055 143.483L60.0856 124.984C60.6885 123.99 61.5445 123.174 62.5662 122.619C63.5878 122.064 64.7386 121.79 65.9008 121.825C67.0621 121.852 68.1952 122.188 69.184 122.798C70.1729 123.407 70.9821 124.269 71.5288 125.294C72.6269 127.37 72.4896 129.869 71.1743 131.818L59.4017 150.317C58.8047 151.247 57.9825 152.011 57.0114 152.539C56.0402 153.067 54.9515 153.341 53.8461 153.336Z" fill="#F62B54"/>
<path d="M74.0522 153.336C71.6762 153.336 69.4899 152.066 68.3419 150.024C67.7776 149.024 67.4962 147.889 67.5278 146.741C67.5595 145.593 67.903 144.475 68.5216 143.508L80.2792 125.051C80.8733 124.043 81.7262 123.212 82.7496 122.645C83.773 122.077 84.9296 121.794 86.0994 121.824C88.4953 121.877 90.6667 123.217 91.7648 125.313C92.8555 127.41 92.6957 129.923 91.3405 131.867L79.5854 150.324C78.9902 151.25 78.1714 152.011 77.2043 152.538C76.2373 153.064 75.1533 153.339 74.0522 153.336Z" fill="#FFCC00"/>
<path d="M93.8064 153.491C97.1558 153.491 99.8711 150.832 99.8711 147.553C99.8711 144.274 97.1558 141.616 93.8064 141.616C90.4569 141.616 87.7416 144.274 87.7416 147.553C87.7416 150.832 90.4569 153.491 93.8064 153.491Z" fill="#00CA72"/>
<path d="M357.276 141.96C359.108 141.96 360.204 143.263 360.204 145.397V152.71H362.692V145.23C362.692 141.601 360.983 139.497 357.768 139.497C356.51 139.497 354.514 139.841 353.323 142.155C353.047 141.472 352.59 140.878 352.003 140.434C351.415 139.99 350.718 139.714 349.986 139.634C349.526 139.55 349.056 139.522 348.589 139.552C347.565 139.634 345.743 140.27 345.062 141.713V139.774H342.571V152.71H345.062V145.729C345.062 143.013 346.839 141.96 348.619 141.96C350.286 141.96 351.381 143.236 351.381 145.369V152.71H353.857V145.729C353.857 143.567 355.155 141.935 357.276 141.96ZM333.429 150.548C334.567 150.573 335.665 150.119 336.462 149.295C337.26 148.472 337.685 147.351 337.642 146.2C337.642 143.595 335.725 141.96 333.429 141.96C331.131 141.96 329.216 143.595 329.216 146.2C329.171 147.349 329.596 148.467 330.389 149.288C331.183 150.111 332.276 150.568 333.409 150.548H333.429ZM333.429 152.974C329.79 152.974 326.753 150.286 326.753 146.185C326.753 142.085 329.79 139.482 333.429 139.482C337.068 139.482 340.13 142.085 340.13 146.185C340.13 150.286 337.051 152.987 333.412 152.987L333.429 152.974ZM313.937 146.185L313.912 146.2C313.912 142.1 317.029 139.497 320.693 139.482C321.614 139.464 322.527 139.64 323.376 139.997C324.224 140.355 324.988 140.887 325.617 141.558L323.731 143.166C323.33 142.772 322.855 142.462 322.334 142.253C321.812 142.044 321.255 141.94 320.693 141.948C318.397 141.948 316.401 143.582 316.401 146.185C316.401 147.945 317.446 149.53 319.051 150.204C320.656 150.878 322.503 150.503 323.731 149.26L325.645 150.868C325.013 151.546 324.246 152.084 323.393 152.447C322.54 152.81 321.62 152.989 320.693 152.974C317.057 152.974 313.937 150.286 313.937 146.185ZM305.968 150.226C305.965 150 306.007 149.776 306.091 149.566C306.176 149.356 306.3 149.164 306.458 149.003C306.616 148.841 306.805 148.712 307.013 148.623C307.221 148.534 307.444 148.487 307.67 148.484C307.896 148.487 308.12 148.534 308.328 148.623C308.536 148.712 308.724 148.841 308.882 149.003C309.04 149.164 309.165 149.356 309.249 149.566C309.333 149.776 309.375 150 309.372 150.226C309.35 150.664 309.162 151.077 308.845 151.381C308.529 151.685 308.109 151.856 307.67 151.861C307.232 151.856 306.811 151.685 306.495 151.381C306.179 151.077 305.99 150.664 305.968 150.226Z" fill="#333333"/>
<path fill-rule="evenodd" clip-rule="evenodd" d="M312.777 123.329H303.914L297.702 139.345L291.523 123.329H282.66L293.434 148.636L286.733 165.368H295.531L312.777 123.329ZM258.878 137.405C258.878 141.449 262.412 144.109 265.883 144.109C269.295 144.109 272.647 141.633 272.647 137.403C272.647 133.173 269.295 130.694 265.883 130.694C262.412 130.694 258.878 133.357 258.878 137.403V137.405ZM272.647 151.537V148.334C270.85 151.055 266.657 152.083 264.506 152.083C257.383 152.083 250.257 146.468 250.257 137.403C250.257 128.341 257.38 122.725 264.506 122.725C266.3 122.725 270.493 123.324 272.647 126.469V123.339H280.908V151.542L272.647 151.539V151.537ZM247.906 151.537H239.645V148.032C238.265 150.628 234.918 152.14 231.444 152.14C224.259 152.14 217.912 146.403 217.912 137.518C217.912 128.465 224.258 122.72 231.444 122.72C234.913 122.72 238.27 124.168 239.645 126.766V107.965H247.906L247.906 151.537ZM239.465 137.34C239.465 133.113 236.413 130.634 233.001 130.634C229.467 130.634 226.532 133.292 226.532 137.34C226.532 141.518 229.467 144.164 232.999 144.164C236.475 144.169 239.465 141.389 239.465 137.34ZM197.486 136.612C197.486 132.324 199.703 130.874 202.635 130.874C205.448 130.874 207.484 132.746 207.484 136.489V151.532H215.805V134.68C215.805 126.649 211.852 122.72 205.565 122.72C202.273 122.72 198.981 124.592 197.484 127.432V123.329H189.168V151.532H197.486V136.612ZM172.271 152.016C164.37 152.016 157.778 146.218 157.778 137.338C157.778 128.453 164.362 122.713 172.271 122.713C180.181 122.713 186.822 128.453 186.822 137.338C186.822 146.223 180.173 152.018 172.271 152.018V152.016ZM172.271 143.805C175.741 143.805 178.618 141.264 178.618 137.34C178.618 133.534 175.743 130.936 172.271 130.936C171.436 130.923 170.606 131.08 169.833 131.398C169.059 131.716 168.359 132.188 167.774 132.786C167.186 133.386 166.724 134.099 166.417 134.881C166.109 135.664 165.962 136.5 165.985 137.34C165.987 141.269 168.86 143.805 172.271 143.805ZM142.861 130.876C145.314 130.876 147.471 132.811 147.471 136.492V151.536H155.732V135.519C155.732 127.003 151.591 122.715 144.955 122.715C142.983 122.715 139.27 123.314 136.574 127.727C135.017 124.465 132.024 122.773 127.602 122.773C126.066 122.765 124.561 123.199 123.266 124.024C121.971 124.849 120.941 126.03 120.299 127.425V123.332H111.973V151.534H120.292V136.612C120.292 132.324 122.628 130.874 125.141 130.874C127.537 130.874 129.688 132.746 129.751 136.31V151.534H138.072V136.612C138.072 132.511 140.228 130.879 142.861 130.879V130.876Z" fill="#333333"/>
</svg>
