<svg width="200" height="55" viewBox="0 0 200 55" fill="none" xmlns="http://www.w3.org/2000/svg">
<g id="nova" clip-path="url(#clip0_34_55)">
<g id="Group">
<path id="Vector" d="M36.3041 0C31.8479 0 28.2969 3.46748 28.2969 7.92369V23.4229L14.9422 7.36666C12.923 4.9436 11.0291 3.98273 8.07687 3.98273C3.62067 3.98273 0 7.6034 0 12.0596V46.8041C0 51.2603 3.62067 54.8809 8.07687 54.8809C12.5331 54.8809 16.1537 51.2603 16.1537 46.8041L16.1398 32.6695L29.9262 47.0965C31.4023 49.0461 33.7279 50.3412 36.3598 50.3412C40.816 50.3412 44.4367 47.1801 44.4367 42.7099V7.89584C44.4646 3.45356 40.6629 0 36.3041 0Z" fill="url(#paint0_linear_34_55)"/>
<g id="Group_2">
<path id="Vector_2" d="M71.7588 36.7219L62.7907 22.7127V36.7219H58.9472V16.9753H63.7377L71.9538 30.0376V16.9753H75.7973V36.7358H71.7588V36.7219Z" fill="#33526D"/>
<path id="Vector_3" d="M90.5166 16.5576C95.8919 16.5576 100.682 20.4846 100.682 26.8626C100.682 33.2127 95.8919 37.1397 90.5166 37.1397C85.1692 37.1397 80.3788 33.2127 80.3788 26.8626C80.3788 20.4846 85.1692 16.5576 90.5166 16.5576ZM90.5166 33.4076C93.5803 33.4076 96.6996 31.2909 96.6996 26.8347C96.6996 22.3785 93.5803 20.2618 90.5166 20.2618C87.4809 20.2618 84.3615 22.3785 84.3615 26.8347C84.3615 31.2909 87.4809 33.4076 90.5166 33.4076Z" fill="#33526D"/>
<path id="Vector_4" d="M117.532 16.9753H121.599L114.274 36.7358H110.319L103.022 16.9753H107.227L112.38 31.653L117.532 16.9753Z" fill="#33526D"/>
<path id="Vector_5" d="M135.288 32.21H127.266L125.623 36.7219H121.557L129.132 16.9614H133.589L141.108 36.7219H136.931L135.288 32.21ZM128.548 28.7007H134.006L131.277 21.2366L128.548 28.7007Z" fill="#33526D"/>
<path id="Vector_6" d="M155.034 22.7406C154.839 21.6544 153.948 19.9555 151.441 19.9555C149.575 19.9555 148.35 21.1531 148.35 22.4621C148.35 23.5483 149.046 24.4117 150.494 24.6902L153.252 25.2194C156.844 25.9156 158.766 28.2552 158.766 31.0403C158.766 34.0761 156.232 37.1397 151.636 37.1397C146.4 37.1397 144.089 33.7697 143.782 30.9567L147.347 30.0098C147.514 31.9594 148.879 33.714 151.664 33.714C153.725 33.714 154.867 32.6835 154.867 31.2909C154.867 30.149 154.004 29.2578 152.472 28.9514L149.715 28.3944C146.567 27.7538 144.534 25.7207 144.534 22.7406C144.534 19.2313 147.681 16.5576 151.413 16.5576C156.204 16.5576 158.042 19.4542 158.488 21.6823L155.034 22.7406Z" fill="#33526D"/>
<path id="Vector_7" d="M172.608 16.5576C177.984 16.5576 182.774 20.4846 182.774 26.8626C182.774 33.2127 177.984 37.1397 172.608 37.1397C167.261 37.1397 162.47 33.2127 162.47 26.8626C162.47 20.4846 167.261 16.5576 172.608 16.5576ZM172.608 33.4076C175.672 33.4076 178.791 31.2909 178.791 26.8347C178.791 22.3785 175.672 20.2618 172.608 20.2618C169.572 20.2618 166.453 22.3785 166.453 26.8347C166.453 31.2909 169.572 33.4076 172.608 33.4076Z" fill="#33526D"/>
<path id="Vector_8" d="M187.356 36.7219V16.9753H191.199V33.0455H200V36.7219H187.356Z" fill="#33526D"/>
</g>
</g>
</g>
<defs>
<linearGradient id="paint0_linear_34_55" x1="0.0167108" y1="27.4405" x2="44.4646" y2="27.4405" gradientUnits="userSpaceOnUse">
<stop offset="0.0026915" stop-color="#C15741"/>
<stop offset="0.3761" stop-color="#D06148"/>
<stop offset="0.9995" stop-color="#E47051"/>
</linearGradient>
<clipPath id="clip0_34_55">
<rect width="200" height="54.8809" fill="white"/>
</clipPath>
</defs>
</svg>
