<svg width="32" height="32" viewBox="0 0 32 32" fill="none" xmlns="http://www.w3.org/2000/svg">
<g id="opt">
<path id="Vector" d="M18.582 19.072C18.842 19.516 19 20.026 19 20.576C19 22.232 17.658 23.576 16 23.576C14.342 23.576 13 22.232 13 20.576C13 18.92 14.342 17.576 16 17.576C16.15 17.576 16.292 17.598 16.436 17.62L24.496 7.554L25.156 7.968L18.582 19.072ZM16 8C17.288 8 18.524 8.214 19.688 8.594C19.776 8.622 20.688 8.782 21.032 8C21.358 7.258 20.686 6.81 20.408 6.716C19.02 6.254 17.542 6 16 6C8.268 6 2 12.268 2 20C2 21.294 2.19 22.542 2.52 23.732C2.52 23.732 3.096 24.614 3.97 24.162C4.692 23.786 4.454 23.26 4.392 23.02C4.136 22.054 4 21.044 4 20C4 13.382 9.382 8 16 8ZM25.876 11.656C25.282 12.25 25.736 13.012 25.79 13.092C27.176 15.048 28 17.428 28 20C28 21.14 27.836 22.242 27.54 23.286C27.496 23.436 27.542 24.228 28.188 24.358C29.17 24.558 29.48 23.734 29.48 23.734C29.81 22.542 30 21.294 30 20C30 16.924 29.008 14.082 27.324 11.776C27.142 11.526 26.316 11.214 25.876 11.656Z" fill="white"/>
</g>
</svg>
