<svg width="24" height="24" viewBox="0 0 24 24" fill="none" xmlns="http://www.w3.org/2000/svg">
<g clip-path="url(#clip0_211_22)">
<mask id="mask0_211_22" style="mask-type:luminance" maskUnits="userSpaceOnUse" x="0" y="0" width="24" height="24">
<path d="M24 0H0V24H24V0Z" fill="white"/>
</mask>
<g mask="url(#mask0_211_22)">
<path d="M16 17V16H13V13H16V15H18V17H17V19H15V21H13V18H15V17H16ZM21 21H17V19H19V17H21V21ZM3 3H11V11H3V3ZM13 3H21V11H13V3ZM3 13H11V21H3V13ZM18 13H21V15H18V13ZM6 6V8H8V6H6ZM6 16V18H8V16H6ZM16 6V8H18V6H16Z" fill="white"/>
</g>
</g>
<defs>
<clipPath id="clip0_211_22">
<rect width="24" height="24" fill="white"/>
</clipPath>
</defs>
</svg>
