<svg width="25" height="25" viewBox="0 0 25 25" fill="none" xmlns="http://www.w3.org/2000/svg">
<g id="qr1">
<path id="Vector" d="M19.9219 16.4062H16.7969C16.5811 16.4062 16.4062 16.5811 16.4062 16.7969V19.9219C16.4062 20.1376 16.5811 20.3125 16.7969 20.3125H19.9219C20.1376 20.3125 20.3125 20.1376 20.3125 19.9219V16.7969C20.3125 16.5811 20.1376 16.4062 19.9219 16.4062Z" fill="#F5F3F3"/>
<path id="Vector_2" d="M16.0156 13.2812H13.6719C13.4561 13.2812 13.2812 13.4561 13.2812 13.6719V16.0156C13.2812 16.2314 13.4561 16.4062 13.6719 16.4062H16.0156C16.2314 16.4062 16.4062 16.2314 16.4062 16.0156V13.6719C16.4062 13.4561 16.2314 13.2812 16.0156 13.2812Z" fill="#F5F3F3"/>
<path id="Vector_3" d="M23.0469 20.3125H20.7031C20.4874 20.3125 20.3125 20.4874 20.3125 20.7031V23.0469C20.3125 23.2626 20.4874 23.4375 20.7031 23.4375H23.0469C23.2626 23.4375 23.4375 23.2626 23.4375 23.0469V20.7031C23.4375 20.4874 23.2626 20.3125 23.0469 20.3125Z" fill="#F5F3F3"/>
<path id="Vector_4" d="M23.0469 13.2812H21.4844C21.2686 13.2812 21.0938 13.4561 21.0938 13.6719V15.2344C21.0938 15.4501 21.2686 15.625 21.4844 15.625H23.0469C23.2626 15.625 23.4375 15.4501 23.4375 15.2344V13.6719C23.4375 13.4561 23.2626 13.2812 23.0469 13.2812Z" fill="#F5F3F3"/>
<path id="Vector_5" d="M15.2344 21.0938H13.6719C13.4561 21.0938 13.2812 21.2686 13.2812 21.4844V23.0469C13.2812 23.2626 13.4561 23.4375 13.6719 23.4375H15.2344C15.4501 23.4375 15.625 23.2626 15.625 23.0469V21.4844C15.625 21.2686 15.4501 21.0938 15.2344 21.0938Z" fill="#F5F3F3"/>
<path id="Vector_6" d="M21.875 1.5625H14.8438C14.4293 1.5625 14.0319 1.72712 13.7389 2.02015C13.4459 2.31317 13.2812 2.7106 13.2812 3.125V10.1562C13.2812 10.5707 13.4459 10.9681 13.7389 11.2611C14.0319 11.5541 14.4293 11.7188 14.8438 11.7188H21.875C22.2894 11.7188 22.6868 11.5541 22.9799 11.2611C23.2729 10.9681 23.4375 10.5707 23.4375 10.1562V3.125C23.4375 2.7106 23.2729 2.31317 22.9799 2.02015C22.6868 1.72712 22.2894 1.5625 21.875 1.5625ZM20.3125 8.20312C20.3125 8.30673 20.2713 8.40608 20.1981 8.47934C20.1248 8.5526 20.0255 8.59375 19.9219 8.59375H16.7969C16.6933 8.59375 16.5939 8.5526 16.5207 8.47934C16.4474 8.40608 16.4062 8.30673 16.4062 8.20312V5.07812C16.4062 4.97452 16.4474 4.87517 16.5207 4.80191C16.5939 4.72866 16.6933 4.6875 16.7969 4.6875H19.9219C20.0255 4.6875 20.1248 4.72866 20.1981 4.80191C20.2713 4.87517 20.3125 4.97452 20.3125 5.07812V8.20312Z" fill="#F5F3F3"/>
<path id="Vector_7" d="M10.1562 1.5625H3.125C2.7106 1.5625 2.31317 1.72712 2.02015 2.02015C1.72712 2.31317 1.5625 2.7106 1.5625 3.125V10.1562C1.5625 10.5707 1.72712 10.9681 2.02015 11.2611C2.31317 11.5541 2.7106 11.7188 3.125 11.7188H10.1562C10.5707 11.7188 10.9681 11.5541 11.2611 11.2611C11.5541 10.9681 11.7188 10.5707 11.7188 10.1562V3.125C11.7188 2.7106 11.5541 2.31317 11.2611 2.02015C10.9681 1.72712 10.5707 1.5625 10.1562 1.5625ZM8.59375 8.20312C8.59375 8.30673 8.5526 8.40608 8.47934 8.47934C8.40608 8.5526 8.30673 8.59375 8.20312 8.59375H5.07812C4.97452 8.59375 4.87517 8.5526 4.80191 8.47934C4.72866 8.40608 4.6875 8.30673 4.6875 8.20312V5.07812C4.6875 4.97452 4.72866 4.87517 4.80191 4.80191C4.87517 4.72866 4.97452 4.6875 5.07812 4.6875H8.20312C8.30673 4.6875 8.40608 4.72866 8.47934 4.80191C8.5526 4.87517 8.59375 4.97452 8.59375 5.07812V8.20312Z" fill="#F5F3F3"/>
<path id="Vector_8" d="M10.1562 13.2812H3.125C2.7106 13.2812 2.31317 13.4459 2.02015 13.7389C1.72712 14.0319 1.5625 14.4293 1.5625 14.8438V21.875C1.5625 22.2894 1.72712 22.6868 2.02015 22.9799C2.31317 23.2729 2.7106 23.4375 3.125 23.4375H10.1562C10.5707 23.4375 10.9681 23.2729 11.2611 22.9799C11.5541 22.6868 11.7188 22.2894 11.7188 21.875V14.8438C11.7188 14.4293 11.5541 14.0319 11.2611 13.7389C10.9681 13.4459 10.5707 13.2812 10.1562 13.2812ZM8.59375 19.9219C8.59375 20.0255 8.5526 20.1248 8.47934 20.1981C8.40608 20.2713 8.30673 20.3125 8.20312 20.3125H5.07812C4.97452 20.3125 4.87517 20.2713 4.80191 20.1981C4.72866 20.1248 4.6875 20.0255 4.6875 19.9219V16.7969C4.6875 16.6933 4.72866 16.5939 4.80191 16.5207C4.87517 16.4474 4.97452 16.4062 5.07812 16.4062H8.20312C8.30673 16.4062 8.40608 16.4474 8.47934 16.5207C8.5526 16.5939 8.59375 16.6933 8.59375 16.7969V19.9219Z" fill="#F5F3F3"/>
</g>
</svg>
