<svg width="28" height="28" viewBox="0 0 28 28" fill="none" xmlns="http://www.w3.org/2000/svg">
<g id="share1">
<path id="Vector" d="M22.1618 12.8333C22.7602 12.8333 23.2532 13.2836 23.3206 13.8639L23.3285 14V21C23.3285 23.4992 21.3639 25.5396 18.8948 25.6609L18.6618 25.6666H9.33335C6.83412 25.6666 4.79376 23.702 4.6724 21.2328L4.66669 21V14C4.66669 13.3556 5.18903 12.8333 5.83335 12.8333C6.43167 12.8333 6.92478 13.2836 6.99217 13.8639L7.00002 14V21C7.00002 22.2301 7.95188 23.2379 9.15922 23.3269L9.33335 23.3333H18.6618C19.8919 23.3333 20.8997 22.3814 20.9887 21.1742L20.9951 21V14C20.9951 13.3556 21.5174 12.8333 22.1618 12.8333ZM7.33685 8.50431L13.1675 2.67494C13.5878 2.25464 14.2491 2.22214 14.7068 2.57753L14.8167 2.67446L20.6541 8.50384C21.11 8.95914 21.1105 9.69784 20.6552 10.1538C20.2349 10.5746 19.5732 10.6074 19.1153 10.2519L19.0053 10.1549L15.162 6.31748L15.1624 17.7974C15.1624 18.3957 14.712 18.8889 14.1317 18.9562L13.9957 18.964C13.3974 18.964 12.9043 18.5137 12.8369 17.9335L12.829 17.7974L12.8287 6.31165L8.9866 10.1544C8.56599 10.5749 7.90422 10.6072 7.44659 10.2513L7.33669 10.1542C6.91616 9.73363 6.88388 9.07185 7.23978 8.61421L7.33685 8.50431Z" fill="#FFE6E6"/>
</g>
</svg>
