<svg width="30" height="30" viewBox="0 0 30 30" fill="none" xmlns="http://www.w3.org/2000/svg">
<g id="tap">
<g id="Page-1">
<g id="icon-23-one-finger-double-tap">
<path id="one-finger-double-tap" fill-rule="evenodd" clip-rule="evenodd" d="M17.2894 9.50504C17.6917 8.77067 17.9205 7.92767 17.9205 7.03125C17.9205 4.18353 15.6119 1.875 12.7642 1.875C9.91648 1.875 7.60795 4.18353 7.60795 7.03125C7.60795 9.03501 8.75091 10.7718 10.4205 11.6253V10.5396C9.28984 9.78278 8.54545 8.49395 8.54545 7.03125C8.54545 4.7013 10.4342 2.8125 12.7642 2.8125C15.0942 2.8125 16.983 4.7013 16.983 7.03125C16.983 7.90427 16.7178 8.71536 16.2636 9.38835C16.3459 9.37953 16.4295 9.375 16.5142 9.375C16.7864 9.375 17.0472 9.42079 17.2894 9.50504ZM15.108 9.32765C15.6879 8.73583 16.0455 7.9253 16.0455 7.03125C16.0455 5.21907 14.5764 3.75 12.7642 3.75C10.952 3.75 9.48295 5.21907 9.48295 7.03125C9.48295 7.9253 9.84052 8.73583 10.4205 9.32765V7.03218C10.4205 5.74587 11.4698 4.6875 12.7642 4.6875C14.0676 4.6875 15.108 5.73725 15.108 7.03218V9.32765ZM17.9205 11.7102C17.9205 10.9383 17.2963 10.3125 16.5142 10.3125C15.7375 10.3125 15.108 10.9465 15.108 11.7102V13.5305V15.9375H14.1705V13.5938V7.03935C14.1705 6.25822 13.5463 5.625 12.7642 5.625C11.9875 5.625 11.358 6.24977 11.358 7.03935V16.6859C9.4282 14.6231 6.8876 12.3554 5.84642 13.4022C4.8272 14.427 7.4536 17.2507 11.1211 23.4216C12.7736 26.2021 14.8645 28.1246 18.3892 28.125C22.2725 28.125 25.4205 24.977 25.4205 21.0938V18.0439V13.5997C25.4205 12.8198 24.7963 12.1875 24.0142 12.1875C23.2375 12.1875 22.608 12.8217 22.608 13.5997V15.7029V15.9375H21.6705V13.7608V12.6481C21.6705 11.8759 21.0463 11.25 20.2642 11.25C19.4875 11.25 18.858 11.8711 18.858 12.6481V13.6014V15H17.9205V13.6014V11.7102Z" fill="#7F52FF"/>
</g>
</g>
</g>
</svg>
